<svg xmlns="http://www.w3.org/2000/svg" width="32" height="32" viewBox="0 0 32 32" role="img" aria-label="半熄灭的维护红石灯">
  <defs>
    <linearGradient id="lampBody" x1="0" y1="0" x2="1" y2="1">
      <stop offset="0" stop-color="#9b632d"/>
      <stop offset="0.48" stop-color="#5a3419"/>
      <stop offset="1" stop-color="#201108"/>
    </linearGradient>
    <radialGradient id="halfGlow" cx="38%" cy="36%" r="64%">
      <stop offset="0" stop-color="#fff0a0"/>
      <stop offset="0.32" stop-color="#ffc64a"/>
      <stop offset="0.62" stop-color="#9a5420"/>
      <stop offset="1" stop-color="#241308"/>
    </radialGradient>
  </defs>

  <rect width="32" height="32" fill="none"/>

  <rect x="3" y="3" width="26" height="26" rx="1.2" fill="#0f0905"/>
  <rect x="5" y="5" width="22" height="22" rx=".9" fill="url(#lampBody)"/>

  <rect x="7" y="7" width="5" height="5" fill="#4a2a12"/>
  <rect x="20" y="7" width="5" height="5" fill="#2a170b"/>
  <rect x="7" y="20" width="5" height="5" fill="#30190b"/>
  <rect x="20" y="20" width="5" height="5" fill="#160b05"/>

  <rect x="9" y="9" width="14" height="14" rx=".8" fill="url(#halfGlow)"/>
  <path d="M16 9h7v14H9v-7h7z" fill="#150b05" opacity=".52"/>
  <rect x="9" y="15" width="14" height="2" fill="#f2b640" opacity=".42"/>
  <rect x="15" y="9" width="2" height="14" fill="#f2b640" opacity=".38"/>
  <rect x="11" y="11" width="6" height="6" fill="#ffd765" opacity=".58"/>
  <rect x="13" y="13" width="3" height="3" fill="#fff4b5" opacity=".7"/>
  <rect x="18" y="18" width="4" height="4" fill="#1a0d06" opacity=".74"/>

  <rect x="6" y="6" width="6" height="1.6" fill="#d49a4a" opacity=".48"/>
  <rect x="6" y="6" width="1.6" height="6" fill="#d49a4a" opacity=".36"/>
  <rect x="21" y="24" width="5" height="1.5" fill="#090503" opacity=".55"/>
  <rect x="24" y="18" width="1.5" height="6" fill="#090503" opacity=".5"/>

  <path d="M22 4h3v2h2v3h-2v2h-3V9h-2V6h2z" fill="#dce3e6"/>
  <rect x="18" y="10" width="3" height="3" fill="#dce3e6"/>
  <rect x="15" y="13" width="3" height="3" fill="#c3cbd0"/>
  <rect x="12" y="16" width="3" height="3" fill="#aeb8bd"/>
  <rect x="9" y="19" width="3" height="3" fill="#8f9ba0"/>
  <rect x="7" y="21" width="4" height="3" fill="#dce3e6"/>
  <rect x="22" y="4" width="3" height="1" fill="#fff" opacity=".55"/>
  <rect x="18" y="10" width="3" height="1" fill="#fff" opacity=".38"/>
</svg>
